<?xml version="1.0" encoding="utf-8"?>
<!-- Generator: Adobe Illustrator 26.3.1, SVG Export Plug-In . SVG Version: 6.00 Build 0)  -->
<svg version="1.1" id="Layer_1" xmlns="http://www.w3.org/2000/svg" xmlns:xlink="http://www.w3.org/1999/xlink" x="0px" y="0px"
	 viewBox="0 0 585.61 75.58" style="enable-background:new 0 0 585.61 75.58;" xml:space="preserve">
<style type="text/css">
	.st0{fill:#F7971D;}
	.st1{fill:#545554;}
</style>
<g id="Primary_-_on_white_2_">
	<path class="st0" d="M0,0.51h9.18v42.34h0.21l17.83-17.83h10.85L16.89,46.08l23.25,28.26H29.2L9.38,49.84H9.18v24.51H0V0.51z"/>
	<path class="st0" d="M42.44,8.96c0-3.23,2.4-5.84,5.84-5.84c3.55,0,6.05,2.5,6.05,5.84c0,3.34-2.61,5.94-6.05,5.94
		C44.84,14.9,42.44,12.3,42.44,8.96z"/>
	<rect x="43.8" y="25.02" class="st0" width="9.18" height="49.32"/>
	<path class="st0" d="M59.44,25.02h7.82l1.04,6.05c5.32-4.38,10.85-7.3,17.1-7.3c7.82,0,15.02,4.59,15.02,17.52v33.06h-9.18V44.31
		c0-6.99-1.67-12.41-8.45-12.41c-5.01,0-9.8,2.92-14.18,6.67v35.77h-9.18V25.02z"/>
	<path class="st0" d="M105.53,50.26c0-15.85,11.37-26.49,26.07-26.49c2.5,0,5.21,0.21,7.72,0.94V0.51h9.18v71.43
		c-3.86,2.09-10.22,3.44-16.48,3.44C117.31,75.39,105.53,66.73,105.53,50.26z M139.31,66.42V32.63c-2.29-0.73-4.07-1.15-7.2-1.15
		c-9.49,0-17.1,6.67-17.1,18.56c0,10.85,6.57,17.52,17.21,17.52C134.52,67.57,137.44,67.25,139.31,66.42z"/>
	<path class="st0" d="M156,0.51h9.18v61.53c0,3.75,1.15,4.9,3.75,4.9c0.73,0,2.19-0.31,3.02-0.63l1.88,7.2
		c-2.29,0.94-5.21,1.46-7.61,1.46c-6.88,0-10.22-3.75-10.22-10.32V0.51z"/>
	<path class="st0" d="M173.2,49.32c0-15.02,8.24-25.55,20.86-25.55c12.93,0,20.44,9.91,20.44,25.65v2.29h-31.91
		c0.21,9.28,5.84,16.16,15.64,16.16c4.69,0,8.76-1.46,12.2-3.34l2.92,6.36c-4.59,2.92-10.64,4.48-16.27,4.48
		C180.71,75.39,173.2,63.39,173.2,49.32z M205.01,44.83c-0.21-6.88-3.55-13.76-10.95-13.76c-7.09,0-11.37,6.26-11.47,13.76H205.01z"
		/>
	<path class="st1" d="M221.08,27.31c0-1.23,1.11-2.35,2.35-2.35h3.95c1.23,0,2.35,1.11,2.35,2.35v26.05
		c0,9.38,4.2,13.95,11.11,13.95c9.38,0,14.69-7.04,14.69-7.04c0-2.72,0-5.55,0-32.96c0-1.23,1.11-2.35,2.35-2.35h3.83
		c1.23,0,2.35,1.11,2.35,2.35V72c0,1.23-1.11,2.35-2.35,2.35h-2.35c-1.36,0-1.85-0.86-2.22-2.1l-0.86-3.21c0,0-5.8,6.54-16.05,6.54
		c-14.32,0-19.13-9.26-19.13-22.34V27.31z"/>
	<path class="st1" d="M270.21,27.31c0-1.23,1.11-2.35,2.35-2.35h2.35c1.11,0,1.73,0.49,1.97,1.48l1.11,3.83
		c0,0,7.04-6.54,17.28-6.54c14.32,0,19.13,9.38,19.13,22.22V72c0,1.23-1.11,2.35-2.35,2.35h-3.95c-1.23,0-2.35-1.11-2.35-2.35V45.95
		c0-9.38-4.2-13.95-11.11-13.95c-9.26,0-15.92,7.04-15.92,7.04V72c0,1.23-1.11,2.35-2.35,2.35h-3.83c-1.23,0-2.35-1.11-2.35-2.35
		V27.31z"/>
	<path class="st1" d="M322.89,2.44c0-1.23,1.11-2.35,2.35-2.35h3.83c1.23,0,2.35,1.11,2.35,2.35V72c0,1.23-1.11,2.35-2.35,2.35
		h-3.83c-1.23,0-2.35-1.11-2.35-2.35V2.44z"/>
	<path class="st1" d="M338.48,8.81c0-3.33,2.59-5.93,5.8-5.93c3.33,0,5.93,2.59,5.93,5.93c0,3.21-2.59,5.8-5.93,5.8
		C341.07,14.61,338.48,12.02,338.48,8.81z"/>
	<path class="st1" d="M340.2,27.31c0-1.23,1.11-2.35,2.35-2.35h3.83c1.23,0,2.35,1.11,2.35,2.35V72c0,1.23-1.11,2.35-2.35,2.35
		h-3.83c-1.23,0-2.35-1.11-2.35-2.35V27.31z"/>
	<path class="st1" d="M358.35,27.31c0-1.23,1.11-2.35,2.35-2.35h2.35c1.11,0,1.73,0.49,1.97,1.48l1.11,3.83c0,0,5.8-6.54,16.05-6.54
		c7.28,0,12.59,2.84,15.8,8.02c0.62-0.49,8.52-8.02,18.39-8.02c14.32,0,19.13,9.38,19.13,22.22V72c0,1.23-1.11,2.35-2.35,2.35h-3.95
		c-1.23,0-2.35-1.11-2.35-2.35V45.95c0-9.26-3.95-13.95-11.11-13.95c-8.02,0-13.33,5.31-15.06,6.91c0.37,2.1,0.62,4.44,0.62,7.04V72
		c0,1.23-1.11,2.35-2.35,2.35h-3.95c-1.23,0-2.35-1.11-2.35-2.35V45.95c0-9.38-4.2-13.95-11.73-13.95c-8.76,0-14.07,7.04-14.07,7.04
		V72c0,1.23-1.11,2.35-2.35,2.35h-3.83c-1.23,0-2.35-1.11-2.35-2.35V27.31z"/>
	<path class="st1" d="M440.44,8.51c0-3.33,2.59-5.93,5.8-5.93c3.33,0,5.93,2.59,5.93,5.93c0,3.21-2.59,5.8-5.93,5.8
		C443.04,14.31,440.44,11.72,440.44,8.51z"/>
	<path class="st1" d="M442.17,27.31c0-1.23,1.11-2.35,2.35-2.35h3.83c1.23,0,2.35,1.11,2.35,2.35V72c0,1.23-1.11,2.35-2.35,2.35
		h-3.83c-1.23,0-2.35-1.11-2.35-2.35V27.31z"/>
	<path class="st1" d="M463.77,32.37h-6.3c-1.36,0-2.35-1.11-2.35-2.35v-2.72c0-1.36,0.99-2.35,2.35-2.35h6.3v-13.7
		c0-1.23,1.11-2.35,2.35-2.35l3.95-0.25c1.23,0,2.22,1.11,2.22,2.35v13.95h14.32c1.36,0,2.35,0.99,2.35,2.35v2.72
		c0,1.23-0.99,2.35-2.35,2.35h-14.32v28.89c0,4.94,1.23,5.93,4.07,5.93c3.09,0,7.41-1.85,9.01-2.72c1.85-0.99,2.35-0.25,2.96,0.74
		l1.85,3.09c0.86,1.48,0.49,2.22-0.86,3.09c-1.73,1.11-8.39,4.2-14.2,4.2c-9.88,0-11.36-5.93-11.36-13.58V32.37z"/>
	<path class="st1" d="M513.28,23.73c12.96,0,22.34,9.63,22.34,22.59c0,0.86-0.12,2.47-0.25,3.33c-0.12,1.23-1.11,2.1-2.22,2.1H497.6
		c0.49,8.27,7.78,16.05,16.54,16.05c5.18,0,9.38-1.97,12.22-3.7c1.73-0.99,2.47-1.6,3.46-0.25c0.74,0.99,1.36,1.85,2.1,2.84
		c0.86,1.11,1.36,1.85-0.49,3.21c-2.96,2.35-9.63,5.68-18.15,5.68c-14.94,0-24.2-11.73-24.2-25.92
		C489.08,35.71,498.34,23.73,513.28,23.73z M527.1,44.84c-0.37-7.16-6.3-13.58-13.83-13.58c-8.27,0-14.69,5.93-15.55,13.58H527.1z"
		/>
	<path class="st1" d="M563.89,23.73c8.15,0,13.21,3.21,13.21,3.21V2.35c0-1.23,1.11-2.35,2.35-2.35h3.83c1.23,0,2.35,1.11,2.35,2.35
		V72c0,1.23-1.11,2.35-2.35,2.35h-2.59c-1.11,0-1.85-0.86-2.1-1.98l-0.74-3.33c0,0-5.93,6.54-15.18,6.54
		c-12.59,0-22.47-11.85-22.47-26.05C540.19,35.09,549.07,23.73,563.89,23.73z M563.52,67.8c8.89,0,13.46-8.15,13.46-8.15V34.97
		c0,0-5.18-2.96-11.97-2.96c-10.74,0-16.17,7.78-16.17,17.65C548.83,59.28,554.51,67.8,563.52,67.8z"/>
</g>
</svg>
